<svg xmlns="http://www.w3.org/2000/svg" viewBox="0 0 600 198.9"><defs><style>.cls-1{fill:#404041;}.cls-2{fill:#fff;}.cls-3{fill:#f38020;}.cls-4{fill:#faae40;}</style></defs><g id="Layer_2" data-name="Layer 2"><g id="layer"><path class="cls-1" d="M594.9,161.8a5.1,5.1,0,1,1,5.1-5.1,5.33,5.33,0,0,1-5.1,5.1m0-9.2a4.1,4.1,0,1,0,4.1,4.1,4.18,4.18,0,0,0-4.1-4.1m2.5,6.7h-1.2l-1-1.9h-1.3v1.9h-1.1v-5.6h2.7a1.76,1.76,0,0,1,1.9,1.8,1.84,1.84,0,0,1-1.2,1.7Zm-2-2.9a.79.79,0,0,0,.8-.8c0-.7-.3-.8-.8-.8h-1.7v1.7h1.7ZM64.3,151.1h13v35.5H99.9V198H64.3Zm49.1,23.5v-.2c0-13.4,10.9-24.4,25.3-24.4s25.1,10.8,25.1,24.2v.2c0,13.4-10.9,24.4-25.3,24.4s-25.1-10.7-25.1-24.2m37.2,0v-.2c0-6.8-4.8-12.6-12-12.6s-11.9,5.8-11.9,12.5v.2c0,6.8,4.8,12.6,11.9,12.6,7.3,0,12-5.7,12-12.5m29.2,2.8V151.1H193v26c0,6.8,3.4,9.9,8.6,9.9s8.6-3.1,8.6-9.6V151h13.2v26c0,15.1-8.6,21.7-22,21.7s-21.6-6.6-21.6-21.3m63.4-26.3h18c16.7,0,26.5,9.6,26.5,23.1v.2c0,13.5-9.9,23.5-26.7,23.5H243.2V151.1Zm18.3,35.3c7.8,0,12.9-4.3,12.9-11.9v-.2c0-7.5-5.2-11.9-12.9-11.9h-5.3v23.8l5.3.2Zm45.1-35.3h37.5v11.4H319.6v8h22.2v10.7H319.6v16.7h-13Zm55.5,0H375v35.5h22.7V198H362.1Zm69.5-.4h12.5l20,47.2H450.2l-3.4-8.3h-18l-3.3,8.3H411.9l19.7-47.2Zm11.5,28.8-5.2-13.3-5.3,13.3Zm37.7-28.4h22.1c7.2,0,12.1,1.8,15.3,5.1,2.8,2.7,4.2,6.3,4.2,10.9v.2c0,7.2-3.8,11.9-9.6,14.4L524,198.1H509l-9.4-14.2h-5.7v14.2h-13l-.1-47Zm21.6,22.4c4.4,0,6.9-2.2,6.9-5.5v-.2c0-3.7-2.7-5.5-7-5.5h-8.5v11.2Zm38.7-22.4h37.7v11H554v7.1h22.5v10.3H554v7.4h25.1v11h-38Zm-505.2,29a11.48,11.48,0,0,1-10.7,7c-7.1,0-11.9-5.9-11.9-12.6v-.2c0-6.8,4.8-12.5,11.9-12.5a11.74,11.74,0,0,1,11.1,7.8H50c-2.2-11.2-12-19.5-24.7-19.5C10.9,150.1,0,161,0,174.5v.2c0,13.4,10.7,24.2,25.1,24.2,12.4,0,22-8,24.5-18.7l-13.7-.1Z"/><path class="cls-2" d="M563.4,76.4,527.6,55.9l-6.2-2.7-146.5,1v74.4H563.4Z"/><path class="cls-3" d="M498.2,121.7c1.8-6,1.1-11.5-1.8-15.6-2.7-3.8-7.2-5.9-12.6-6.2L381,98.6a1.82,1.82,0,0,1-1.6-.8,2.78,2.78,0,0,1-.3-1.8,2.58,2.58,0,0,1,2.4-1.8l103.7-1.3c12.3-.6,25.6-10.5,30.3-22.7l5.9-15.4a3.46,3.46,0,0,0,.2-2,67.5,67.5,0,0,0-129.8-7A30.36,30.36,0,0,0,343.4,67a30.92,30.92,0,0,0,.8,10.6,43.15,43.15,0,0,0-41.9,43.2c0,2.1.2,4.2.4,6.3a2.13,2.13,0,0,0,2,1.8H494.4a2.58,2.58,0,0,0,2.4-1.8l1.4-5.4Z"/><path class="cls-4" d="M530.9,55.8a26.2,26.2,0,0,0-2.8.1,1.59,1.59,0,0,0-1.5,1.2l-4,13.9c-1.8,6-1.1,11.5,1.8,15.6,2.7,3.8,7.2,5.9,12.6,6.2l21.9,1.3a1.82,1.82,0,0,1,1.6.8,2.89,2.89,0,0,1,.3,1.8,2.58,2.58,0,0,1-2.4,1.8l-22.8,1.3c-12.4.6-25.6,10.5-30.3,22.7l-1.7,4.3a1.27,1.27,0,0,0,1.2,1.7h78.3a2,2,0,0,0,2-1.5,58.11,58.11,0,0,0,2.1-15.2,56.36,56.36,0,0,0-56.3-56"/></g></g></svg>