<?xml version="1.0" encoding="utf-8"?>
<!-- Generator: Adobe Illustrator 24.0.1, SVG Export Plug-In . SVG Version: 6.00 Build 0)  -->
<svg version="1.1" id="Layer_2" xmlns="http://www.w3.org/2000/svg" xmlns:xlink="http://www.w3.org/1999/xlink" x="0px" y="0px"
	 viewBox="0 0 1716.92 435.07" style="enable-background:new 0 0 1716.92 435.07;" xml:space="preserve">
<style type="text/css">
	.st0{fill:#3F3F3F;}
	.st1{fill:#F15A2B;}
	.st2{fill:#FFFFFF;}
</style>
<g>
	<g>
		<path class="st0" d="M549.51,235.23h67.76v18.54c-11.87,18.54-35.08,26.01-63.63,26.01c-46.69,0-75.23-20.94-75.23-61.76
			s28.14-61.76,73.76-61.76c27.21,0,46.15,7.87,60.56,24.14l22.81-16.27c-16.14-17.34-43.62-32.15-83.5-32.15
			c-63.63,0-101.91,32.55-101.91,86.17s38.28,86.17,102.31,86.17c44.55,0,76.83-17.47,91.64-41.35v-51.49h-94.57V235.23
			L549.51,235.23z"/>
		<path class="st0" d="M709.58,216.42V161.2h80.97c23.21,0,38.95,7.47,38.95,27.61c0.13,20.14-15.74,27.61-38.95,27.61H709.58
			L709.58,216.42z M858.17,188.55c0-33.61-27.88-51.75-65.63-51.75H682.1v162.47h27.74V240.3h68.43l50.42,58.96h34.28l-52.69-60.29
			C838.7,233.9,858.17,216.69,858.17,188.55"/>
		<path class="st0" d="M936.74,236.43l39.75-75.23l39.62,75.23H936.74L936.74,236.43z M961.28,136.79l-88.04,162.47h30.15
			l20.67-39.22h104.18l20.94,39.22h30.41l-87.64-162.47H961.28L961.28,136.79z"/>
		<polygon class="st0" points="1164.03,270.71 1095.6,136.79 1064.79,136.79 1149.09,299.26 1178.7,299.26 1263,136.79 
			1232.46,136.79 1164.03,270.71 		"/>
		<polygon class="st0" points="1289.55,299.26 1317.42,299.26 1317.42,136.79 1289.55,136.79 1289.55,299.26 		"/>
		<g>
			<polygon class="st0" points="1346.37,161.2 1420,161.2 1420,299.26 1447.74,299.26 1447.74,161.2 1521.77,161.2 1521.77,136.79 
				1346.37,136.79 1346.37,161.2 			"/>
			<polygon class="st0" points="1684.91,136.79 1623.41,219.23 1561.39,136.79 1529.11,136.79 1609.14,243.1 1609.14,299.26 
				1637.02,299.26 1637.02,243.1 1716.92,136.79 1684.91,136.79 			"/>
		</g>
	</g>
	<path class="st1" d="M395.15,295.47c0,19.87-14.08,44.28-31.31,54.22l-134.98,77.94c-17.21,9.94-45.38,9.94-62.6,0L31.29,349.68
		C14.08,339.75,0,315.36,0,295.47V139.59c0-19.87,14.08-44.27,31.29-54.2L166.27,7.45c17.21-9.94,45.38-9.94,62.6,0l134.98,77.94
		c17.21,9.94,31.31,34.33,31.31,54.2V295.47L395.15,295.47z"/>
	<path class="st2" d="M159.26,181.44h178.87v-50.31H159.68c-25.52,0-46.68,8.74-62.87,25.97C57.87,198.56,56.81,303,56.81,303
		h279.92V208.5h-50.29v44.2H110.49c1.12-16.46,8.66-45.91,22.98-61.15C139.96,184.66,148.14,181.44,159.26,181.44L159.26,181.44z"/>
</g>
</svg>
